# xmcd
# Track frame offsets:
# 150
# 14720
# 32102
# 44935
# 59907
# 76370
# 92122
# 110712
# 123300
# 137010
# 150017
# 167032
# 181135
# 202492
#
# Disc length: 2951 seconds
# Revision: 2
# Processed by: cddbd v1.4PL0 Copyright (c) Steve Scherf et al.
# Submitted via: VisiTrax 2.9.5.180 - For more info visit www.synapsa.com
#
DISCID=cd0b850e
DTITLE=Various Artist - Mr. Music Country 06-97
DYEAR=1997
DGENRE=
TTITLE0=Nola Rose and The Thorns - It's All Over Now
TTITLE1=Robin and Linda Williams - Traffic Light
TTITLE2=Ron Sweet - From Cotton to Satin
TTITLE3=James R Walls - Sometimes a Tear Drops in
TTITLE4=Darrell Scott - Title of the Song
TTITLE5=Chris Hillman and Herb Pedersen - My Baby's gone
TTITLE6=Terry Allen - Lucinda Williams - Room to room
TTITLE7=Vanice Flowers - On a River Bank
TTITLE8=Brothers Boys - Let's Shake Loose
TTITLE9=Bobby G Rice - Go Ahead and Break My Heart
TTITLE10=Sweethearts of the Rodeo - Beautiful Lies
TTITLE11=Doc Watson - Shake Rattle and Roll
TTITLE12=Barbara Lamb - Sarah Majors - Tonight I Feel like Texas
TTITLE13=Guy Clark - South Coast of Texas
EXTD=
EXTT0=
EXTT1=
EXTT2=
EXTT3=
EXTT4=
EXTT5=
EXTT6=
EXTT7=
EXTT8=
EXTT9=
EXTT10=
EXTT11=
EXTT12=
EXTT13=
PLAYORDER=
